<svg xmlns="http://www.w3.org/2000/svg" width="461" height="461" viewBox="0 0 461 461" fill="none"><path d="M230.396 460.8C103.353 460.8 0 357.438 0 230.396C0 103.353 103.353 0 230.396 0C357.438 0 460.792 103.353 460.792 230.396C460.792 357.438 357.438 460.8 230.396 460.8ZM230.396 17.1377C112.809 17.1377 17.1377 112.809 17.1377 230.396C17.1377 347.992 112.809 443.662 230.396 443.662C347.983 443.662 443.654 347.992 443.654 230.396C443.654 112.809 347.983 17.1377 230.396 17.1377Z" fill="black"></path><path d="M137.745 291.683C94.5828 291.683 59.4709 256.571 59.4709 213.417C59.4709 170.254 94.5828 135.143 137.745 135.143C180.899 135.143 216.011 170.255 216.011 213.417C216.011 256.57 180.9 291.683 137.745 291.683ZM137.745 152.281C104.03 152.281 76.6085 179.703 76.6085 213.417C76.6085 247.124 104.03 274.546 137.745 274.546C171.451 274.546 198.873 247.124 198.873 213.417C198.873 179.703 171.451 152.281 137.745 152.281Z" fill="black"></path><path d="M323.046 291.683C279.893 291.683 244.781 256.571 244.781 213.417C244.781 170.254 279.893 135.143 323.046 135.143C366.209 135.143 401.321 170.255 401.321 213.417C401.321 256.57 366.208 291.683 323.046 291.683ZM323.046 152.281C289.34 152.281 261.919 179.703 261.919 213.417C261.919 247.124 289.34 274.546 323.046 274.546C356.762 274.546 384.183 247.124 384.183 213.417C384.183 179.703 356.762 152.281 323.046 152.281Z" fill="black"></path><path d="M323.046 249.768C303.006 249.768 286.695 233.459 286.695 213.417C286.695 193.368 303.005 177.059 323.046 177.059C343.096 177.059 359.406 193.368 359.406 213.417C359.406 233.459 343.096 249.768 323.046 249.768ZM323.046 194.197C312.453 194.197 303.833 202.816 303.833 213.417C303.833 224.011 312.452 232.63 323.046 232.63C333.649 232.63 342.268 224.011 342.268 213.417C342.268 202.816 333.648 194.197 323.046 194.197Z" fill="black"></path><path d="M137.745 249.768C117.695 249.768 101.386 233.459 101.386 213.417C101.386 193.368 117.695 177.059 137.745 177.059C157.786 177.059 174.095 193.368 174.095 213.417C174.095 233.459 157.786 249.768 137.745 249.768ZM137.745 194.197C127.143 194.197 118.524 202.816 118.524 213.417C118.524 224.011 127.143 232.63 137.745 232.63C148.339 232.63 156.959 224.011 156.959 213.417C156.959 202.816 148.34 194.197 137.745 194.197Z" fill="black"></path><path d="M230.396 150.013C227.258 150.013 224.364 148.298 222.865 145.536L220.908 141.929C206.137 114.759 177.754 97.8811 146.834 97.8811H115.346C80.1679 97.8811 47.6324 80.3328 28.3023 50.9532C25.6993 46.9955 26.796 41.6809 30.7456 39.0871C34.729 36.4677 40.0179 37.5808 42.6117 41.5304C58.7704 66.0818 85.9576 80.7434 115.346 80.7434H146.834C180.466 80.7434 211.594 97.3373 230.397 124.667C249.2 97.3363 280.329 80.7434 313.96 80.7434H345.448C374.837 80.7434 402.024 66.0828 418.183 41.5304C420.778 37.5808 426.091 36.4677 430.049 39.0871C433.999 41.6809 435.095 46.9945 432.493 50.9532C413.162 80.3328 380.628 97.8811 345.448 97.8811H313.96C283.041 97.8811 254.657 114.759 239.887 141.929L237.929 145.536C236.429 148.298 233.534 150.013 230.396 150.013Z" fill="black"></path><path d="M230.396 335.958C227.694 335.958 225.157 334.686 223.534 332.527L200.58 301.859C198.53 299.113 198.305 295.415 200.02 292.444L222.973 252.595C226.019 247.29 234.772 247.29 237.818 252.595L260.771 292.444C262.486 295.415 262.261 299.113 260.21 301.859L237.257 332.527C235.634 334.686 233.098 335.958 230.396 335.958ZM217.685 296.11L230.396 313.089L243.107 296.11L230.396 274.044L217.685 296.11Z" fill="black"></path></svg>